<?xml version="1.0" encoding="UTF-8" ?>
<!DOCTYPE svg PUBLIC "-//W3C//DTD SVG 1.1//EN" "http://www.w3.org/Graphics/SVG/1.1/DTD/svg11.dtd">
<svg width="765pt" height="765pt" viewBox="0 0 765 765" version="1.1" xmlns="http://www.w3.org/2000/svg">
<g id="#488db6ff">
<path fill="#488db6" opacity="1.00" d=" M 370.65 20.62 C 373.82 18.84 377.37 17.89 380.97 17.51 C 381.03 78.62 380.99 139.72 380.99 200.83 C 326.00 201.34 270.98 200.66 215.99 201.17 C 198.74 201.65 183.31 216.61 183.00 233.96 C 182.98 302.97 183.02 371.98 182.98 441.00 C 180.03 459.90 195.96 478.86 215.02 479.10 C 241.34 479.74 267.68 479.39 294.00 479.91 C 301.33 479.83 308.75 480.44 316.00 479.05 C 326.32 477.62 334.90 467.48 334.11 457.01 C 334.99 445.30 324.41 434.72 313.05 433.99 C 287.02 434.00 260.97 433.98 234.94 434.02 C 232.72 434.22 230.71 433.34 229.08 431.90 C 228.90 371.92 229.04 311.93 229.01 251.95 C 228.50 248.50 231.59 245.74 234.93 246.04 C 283.62 245.53 332.29 247.38 380.99 247.00 C 381.01 255.51 381.00 264.03 381.00 272.55 C 377.25 274.84 373.96 277.83 371.58 281.55 C 354.81 305.76 337.78 329.80 320.98 353.99 C 318.73 356.86 319.06 362.03 323.28 362.70 C 333.77 363.66 344.39 362.35 354.89 363.28 C 358.16 363.61 359.03 367.19 358.99 369.94 C 358.99 417.31 358.95 464.69 358.97 512.06 C 359.06 514.50 358.12 518.28 355.00 517.98 C 330.98 518.18 306.95 518.12 282.93 518.29 C 267.65 517.18 253.39 532.48 258.41 547.61 C 260.54 557.90 270.91 564.47 280.94 564.96 C 314.28 565.26 347.65 564.57 380.98 565.31 C 381.10 625.96 380.85 686.63 381.10 747.28 C 383.08 747.38 385.07 747.49 387.07 747.50 C 381.13 748.58 374.84 747.45 369.66 744.36 C 271.00 686.66 172.33 628.98 73.67 571.27 C 65.85 566.85 60.91 557.98 61.18 549.01 C 61.28 435.99 61.41 322.97 61.49 209.95 C 61.26 200.79 66.57 191.91 74.59 187.56 C 173.28 131.92 271.95 76.25 370.65 20.62 Z" />
</g>
<g id="#69c1f4ff">
<path fill="#69c1f4" opacity="1.00" d=" M 380.97 17.51 C 386.14 17.32 391.38 18.44 395.81 21.19 C 494.22 78.74 592.65 136.28 691.05 193.84 C 698.98 198.16 704.22 206.94 704.02 215.99 C 703.96 329.34 703.80 442.70 703.69 556.05 C 703.69 564.94 698.55 573.56 690.72 577.77 C 592.70 633.06 494.67 688.32 396.65 743.61 C 393.67 745.38 390.47 746.82 387.07 747.50 C 385.07 747.49 383.08 747.38 381.10 747.28 C 380.85 686.63 381.10 625.96 380.98 565.31 C 415.31 565.15 449.65 565.54 483.98 565.18 C 498.53 565.36 510.66 549.91 506.15 535.89 C 503.62 525.10 492.76 518.23 482.07 518.13 C 457.71 517.97 433.34 518.17 408.98 517.98 C 405.57 518.42 405.80 514.25 405.68 511.98 C 405.76 463.98 405.72 415.96 405.89 367.96 C 405.71 365.44 406.64 362.65 409.59 362.62 C 420.56 361.44 431.73 363.34 442.66 361.67 C 446.40 360.06 444.94 355.54 442.92 353.12 C 424.85 328.16 406.92 303.10 388.78 278.19 C 386.94 275.42 383.98 273.80 381.00 272.55 C 381.00 264.03 381.01 255.51 380.99 247.00 C 431.35 246.95 481.72 246.94 532.08 247.02 C 535.51 246.65 537.79 249.77 537.16 252.99 C 536.99 310.67 537.08 368.35 537.07 426.03 C 537.50 429.18 535.73 433.19 532.04 432.97 C 509.70 433.23 487.32 432.72 464.98 433.18 C 450.67 433.23 439.20 449.20 444.15 462.69 C 446.74 472.17 456.14 479.37 466.00 479.05 C 495.02 478.93 524.04 479.08 553.05 478.97 C 567.86 477.50 581.54 465.06 583.02 450.05 C 583.32 382.37 583.28 314.68 583.42 247.00 C 583.40 240.43 583.73 233.79 582.64 227.29 C 579.17 215.18 568.92 205.16 556.57 202.36 C 549.91 200.28 542.86 201.13 536.00 201.00 C 484.33 200.91 432.66 201.12 380.99 200.83 C 380.99 139.72 381.03 78.62 380.97 17.51 Z" />
</g>
<g id="#d9d9d9ff">
<path fill="#d9d9d9" opacity="1.00" d=" M 183.00 233.96 C 183.31 216.61 198.74 201.65 215.99 201.17 C 270.98 200.66 326.00 201.34 380.99 200.83 C 381.00 216.22 381.01 231.61 380.99 247.00 C 332.29 247.38 283.62 245.53 234.93 246.04 C 231.59 245.74 228.50 248.50 229.01 251.95 C 229.04 311.93 228.90 371.92 229.08 431.90 C 230.71 433.34 232.72 434.22 234.94 434.02 C 260.97 433.98 287.02 434.00 313.05 433.99 C 324.41 434.72 334.99 445.30 334.11 457.01 C 334.90 467.48 326.32 477.62 316.00 479.05 C 308.75 480.44 301.33 479.83 294.00 479.91 C 267.68 479.39 241.34 479.74 215.02 479.10 C 195.96 478.86 180.03 459.90 182.98 441.00 C 183.02 371.98 182.98 302.97 183.00 233.96 Z" />
<path fill="#d9d9d9" opacity="1.00" d=" M 371.58 281.55 C 373.96 277.83 377.25 274.84 381.00 272.55 C 380.98 370.13 381.03 467.72 380.98 565.31 C 347.65 564.57 314.28 565.26 280.94 564.96 C 270.91 564.47 260.54 557.90 258.41 547.61 C 253.39 532.48 267.65 517.18 282.93 518.29 C 306.95 518.12 330.98 518.18 355.00 517.98 C 358.12 518.28 359.06 514.50 358.97 512.06 C 358.95 464.69 358.99 417.31 358.99 369.94 C 359.03 367.19 358.16 363.61 354.89 363.28 C 344.39 362.35 333.77 363.66 323.28 362.70 C 319.06 362.03 318.73 356.86 320.98 353.99 C 337.78 329.80 354.81 305.76 371.58 281.55 Z" />
</g>
<g id="#ffffffff">
<path fill="#ffffff" opacity="1.00" d=" M 380.99 200.83 C 432.66 201.12 484.33 200.91 536.00 201.00 C 542.86 201.13 549.91 200.28 556.57 202.36 C 568.92 205.16 579.17 215.18 582.64 227.29 C 583.73 233.79 583.40 240.43 583.42 247.00 C 583.28 314.68 583.32 382.37 583.02 450.05 C 581.54 465.06 567.86 477.50 553.05 478.97 C 524.04 479.08 495.02 478.93 466.00 479.05 C 456.14 479.37 446.74 472.17 444.15 462.69 C 439.20 449.20 450.67 433.23 464.98 433.18 C 487.32 432.72 509.70 433.23 532.04 432.97 C 535.73 433.19 537.50 429.18 537.07 426.03 C 537.08 368.35 536.99 310.67 537.16 252.99 C 537.79 249.77 535.51 246.65 532.08 247.02 C 481.72 246.94 431.35 246.95 380.99 247.00 C 381.01 231.61 381.00 216.22 380.99 200.83 Z" />
<path fill="#ffffff" opacity="1.00" d=" M 381.00 272.55 C 383.98 273.80 386.94 275.42 388.78 278.19 C 406.92 303.10 424.85 328.16 442.92 353.12 C 444.94 355.54 446.40 360.06 442.66 361.67 C 431.73 363.34 420.56 361.44 409.59 362.62 C 406.64 362.65 405.71 365.44 405.89 367.96 C 405.72 415.96 405.76 463.98 405.68 511.98 C 405.80 514.25 405.57 518.42 408.98 517.98 C 433.34 518.17 457.71 517.97 482.07 518.13 C 492.76 518.23 503.62 525.10 506.15 535.89 C 510.66 549.91 498.53 565.36 483.98 565.18 C 449.65 565.54 415.31 565.15 380.98 565.31 C 381.03 467.72 380.98 370.13 381.00 272.55 Z" />
</g>
</svg>
