<?xml version="1.0" encoding="UTF-8"?>
<svg data-bbox="0.006 -0.014 1793 508.413" viewBox="0 0 1793.006 508.434" height="677.912" width="2390.674" xmlns="http://www.w3.org/2000/svg" data-type="shape">
    <g>
        <path d="M646.806.817c-5 1.4-6.3 2.2-11.6 7.1-6.2 5.6-7.5 9.7-8.2 23.6l-.5 12.5-7.2.3-7.3.3v11.9h15v76h14v-75.9l10.3-.3 10.2-.3.3-5.8.3-5.7h-21.3l.3-11.8c.4-12.7 1.4-15.5 6.5-18.8 2.7-1.9 10.3-2.4 14.7-1l2.7.8v-6c0-3.4-.4-6.3-.9-6.6-2.1-1.4-12.9-1.5-17.3-.3z"/>
        <path d="M158.906 6.417c-5.9 6-2.2 15.1 6.3 15.1 5.3 0 8.8-3.5 8.8-8.8 0-8.5-9.1-12.2-15.1-6.3z"/>
        <path d="M1.006 70.517v62h14.2l-.3-53.1c-.3-32-.1-51.6.5-49.3.7 3.3 9.6 23.8 38.7 88.9l5.8 13 3.8.3 3.8.3 21.7-48.8c11.9-26.8 22.1-50.7 22.8-53.1.6-2.3 1.2-4.2 1.3-4.2.1 0 .1 23.8-.1 53l-.3 53h14.1V8.417l-9.1.3-9.1.3-19.4 43c-10.7 23.6-20.7 46.3-22.2 50.2-1.5 4-2.9 7.3-3.2 7.3-.3 0-1.4-2.1-2.3-4.7-1-2.6-10.8-25.4-21.9-50.5l-20.1-45.8h-18.7v62z"/>
        <path d="M690.506 20.417l-5 1.8-.5 10.9-.5 10.9-7.7.3-7.8.3v11.9h16v30.7c0 30.2.1 30.9 2.4 35.8 2.7 5.8 4.7 7.8 9.9 10 4.2 1.7 14.4 2 20 .4l3.7-1v-6.1c0-5.4-.2-5.9-1.7-5.2-3.1 1.3-12 1.6-14.3.4-1.1-.6-3-2.6-4-4.3-1.9-3-2-5.2-2-32v-28.7h22v-12h-22v-13c0-14.8.4-14.2-8.5-11.1z"/>
        <path d="M745.506 19.717c-6.1 1.7-13.9 10-15.5 16.7-2.8 11.8 2.9 23.2 14 27.9 4.4 1.8 13.6 1.8 18.1-.1 4.6-1.9 10.7-8 12.6-12.6 1.9-4.5 1.9-13.7.1-18.1-4.7-11.2-17.3-17.1-29.3-13.8zm16.1 3.7c7.9 3.6 13.6 14.2 11.9 22.3-2.5 11.9-14 19.6-25.4 16.8-9.2-2.2-16-10.6-16.1-19.8-.1-15.1 15.9-25.5 29.6-19.3z"/>
        <path d="M744.006 42.017c0 14.8.1 15.5 2 15.5 1.8 0 2-.7 2-6.5s.2-6.5 1.9-6.5c2.3 0 5 3.1 7.5 8.9 1.5 3.1 2.5 4.1 4.3 4.1 1.2 0 2.3-.2 2.3-.5 0-1.6-6.1-12.4-7.2-12.7-.8-.3-.3-1 1.2-1.8 3.4-1.8 4.9-4 5-7.1 0-5.5-5.6-8.7-15.7-8.9h-3.3v15.5zm12.4-10.2c2.2 1.6 2.5 6.5.5 7.8-.8.5-3.1.9-5.1.9h-3.8v-5c0-5 0-5 3.3-5 1.8 0 4.1.6 5.1 1.3z"/>
        <path d="M227.706 43.517c-7.5 1.9-14.4 6-20.1 12-9.8 10.3-13.1 20.5-12.4 38 .4 9.3.8 11.5 3.6 17.3 4.1 8.9 10.9 15.9 19.1 20 6.3 3.1 7 3.2 19.1 3.2 10.7 0 13.3-.4 18.3-2.3l5.7-2.3v-13.7l-5.7 3.1c-7.3 3.9-19.1 4.9-27.1 2.3-12.8-4.3-20.4-18.9-18.8-36.1 1.1-12.1 7.6-22.7 17.1-27.8 3.3-1.8 5.7-2.2 13.5-2.2 8.2 0 10.3.4 15.3 2.7l5.7 2.7v-14l-3.7-1.6c-4.5-1.9-23.8-2.7-29.6-1.3z"/>
        <path d="M315.006 43.417c-7.4 2.3-12.7 7.1-16.1 14.6l-1.9 4v-17.5h-15v88h14.9l.3-28.8c.3-27.8.4-28.9 2.7-34 5-11 14.8-16.2 24.6-13l4.5 1.5v-6.9c0-6.4-.2-6.9-2.6-7.8-2.9-1.1-7.8-1.2-11.4-.1z"/>
        <path d="M366.006 44.017c-7.4 2.1-12.7 5.4-18.2 11.3-8.4 8.9-11.8 18.8-11.8 33.7 0 18.6 6 31.2 19 39.5 13.3 8.5 36.3 8.1 49.5-1 13.6-9.3 20.4-27.6 17.7-47.4-1.5-11.8-4.4-18.7-10.8-25.5-8-8.6-14.7-11.4-28.9-11.8-7.7-.2-12.7.2-16.5 1.2zm26.6 12.9c11 5.1 16 16.4 15.2 34.6-.4 9.1-.8 11.6-3.2 16.3-3.1 6.5-8.9 11.9-14.5 13.5-6.1 1.9-17.9 1.5-22.8-.7-5.9-2.7-11.8-9.3-14.4-15.9-1.7-4.4-2.2-7.9-2.3-15.2-.1-13.7 2-19.7 9.2-27 6.6-6.5 9.8-7.8 20.2-7.9 5.9-.1 8.6.4 12.6 2.3z"/>
        <path d="M462.706 43.517c-15.8 4-24.7 16.2-21.7 29.6 2.1 9.5 8 14.4 25.7 21.5 13.7 5.5 17.3 8.8 17.3 16 0 4.4-.4 5.5-3.1 8-3.7 3.5-7.6 4.3-18.4 3.7-7.1-.4-9.5-1-15.5-3.9l-7-3.5v7.3c0 6.9.1 7.3 2.8 8.7 9.1 4.6 30.7 4.9 40.2.4 9.4-4.4 14.6-10.9 15.7-19.6.8-7.3-1.1-12.7-6.5-18.1-3.8-3.8-7.2-5.8-17.4-10.1-15.9-6.6-18.8-8.9-19.5-15.2-.7-5.9 1.1-8.9 6.9-11.9 6-3.1 18.9-2.4 27.1 1.4l5.8 2.6-.3-7.2-.3-7.2-4-1.4c-4.8-1.7-22.5-2.4-27.8-1.1z"/>
        <path d="M545.006 44.017c-7.4 2.1-12.7 5.4-18.2 11.3-8.5 9-11.8 18.7-11.8 34.3 0 20 7.9 33.8 23.8 41.6 4.7 2.3 7.1 2.7 16.6 3.1 9.5.4 12 .1 17.5-1.8 11.6-3.9 19.2-10.6 24.2-21.5 6.8-14.5 6-36.9-1.8-50.2-3.4-5.8-10.4-12-17.1-15.1-4.8-2.2-7.4-2.6-16.7-2.9-7.6-.2-12.7.2-16.5 1.2zm26.8 13.1c10.3 5.1 15.2 15.3 15.2 31.3 0 17.7-6.2 29-17.9 33-4.9 1.6-17.5 1.4-21.7-.4-13.3-5.5-20.3-21-17.7-38.9 1.3-9 4.1-15.2 9.3-20.3 5.3-5.2 10.9-7.2 20.1-7.2 6.1-.1 8.4.4 12.7 2.5z"/>
        <path d="M158.006 88.517v44h14v-88h-14v44z"/>
        <path d="M345.206 151.217c-2.3.8-6.2 3.5-8.7 6-10.1 10-9.6 26.8 1 36.1 5 4.5 9.8 6.2 16.9 6.2 11.6 0 21.1-7 24.2-17.9 5.9-19.9-13.4-37.5-33.4-30.4z"/>
        <path d="M.206 333.717l.3 169.3h55c58.7 0 64.7-.4 86.4-5.1 33.8-7.5 60.4-21.8 83.6-44.9 13.3-13.3 21.7-25 29.6-41 12.1-24.8 18-52 17.9-83.4-.2-55.9-16.7-99-48-125.5-26-22-58.3-33.7-104-37.6-6.3-.5-36.1-1-66.3-1H.006l.2 169.2zm117.6-132.2c35.9 3.9 62 14.7 80.8 33.4 17.3 17.3 28 41.7 31.4 71.6 1.8 14.8.7 47.5-1.9 60.1-12.1 59.1-52.9 93.8-117.6 99.9-6 .5-24.4 1-40.7 1h-29.8v-267h34c18.8 0 38.4.5 43.8 1z"/>
        <path d="M1230.606 165.717c.5.7 23.9 38.6 52.1 84.2l51.4 82.8-23.3 35.2c-12.7 19.3-37.9 57.1-55.8 84.1-17.9 26.9-33 49.6-33.4 50.2-.6 1 4.4 1.3 23.6 1.3l24.3-.1 40.3-65.2c22.2-35.9 42.2-69.1 44.3-73.7l4-8.5 3.5 7.5c1.9 4.1 21.3 37.3 43.2 73.7l39.7 66.3h48.5l-2.6-4.3c-1.5-2.3-25.8-40.8-54.1-85.5l-51.4-81.3 34.7-54.7c19.1-30.1 43-67.8 53.1-83.7l18.4-29-22.2-.3c-17-.2-22.6.1-23.5 1-2.4 2.5-73.9 120.6-79.5 131.2l-5.7 10.9-4.7-9.4c-2.6-5.2-21-37.4-40.9-71.7l-36.1-62.2h-24.3c-19.2 0-24.2.3-23.6 1.2z"/>
        <path d="M1508.206 169.617c-21.2 10.5-15.2 42.5 8.5 44.6 10.1.9 20-5 23.9-14.3 2-4.7 1.7-14.1-.5-18.9-2.3-4.9-7.4-9.9-12.3-11.9-5.4-2.3-14.4-2-19.6.5zm19.8 2.4c3.6 1.9 8.7 7.5 10 11 1.8 4.8 1.4 12.8-.9 17.3-4 7.9-11.3 11.8-20.7 11-17.7-1.5-24.8-23.6-11.6-36.1 5.6-5.3 16.3-6.8 23.2-3.2z"/>
        <path d="M1509.006 190.517v15h2.5c2.4 0 2.5-.2 2.5-6.5 0-5.1.3-6.5 1.5-6.5 2.2 0 5.1 3.3 7.4 8.4 1.6 3.7 2.5 4.6 4.6 4.6h2.5l-3-5.9c-1.6-3.3-3.5-6.3-4.1-6.6-.6-.5.1-1.4 1.9-2.5 3.8-2.4 5-7.1 2.7-10.6-2.1-3.3-5.3-4.4-12.6-4.4h-5.9v15zm13.8-9.8c.7.7 1.2 2.4 1.2 4 0 3.2-2.4 4.8-6.9 4.8-3 0-3.1-.1-3.1-5v-5h3.8c2.1 0 4.3.5 5 1.2z"/>
        <path d="M1121.506 196.017l-19 6.1-.3 29.7-.2 29.7h-41v33h40.9l.4 79.2c.4 76 .5 79.7 2.5 88.6 5.2 23.4 18.6 38.1 39.7 43.8 14.4 3.8 38 2.6 51.8-2.6l5.7-2.1v-32.8l-6.7 3.2c-5.7 2.6-8.3 3.2-16.1 3.5-20.8.9-31.1-5.9-36.1-23.8-1.2-4.6-1.5-17.3-1.8-81.3l-.4-75.7h61.1v-33h-61l-.2-35.8-.3-35.8-19 6.1z"/>
        <path d="M693.506 256.617c-28 3.3-54.7 19.8-72.5 44.7-10.9 15.2-18 32.4-21.7 52.2-2.2 11.9-2.5 47.3-.4 59.5 8.2 49.6 34.1 81.1 75.6 92.1 8.5 2.3 12.7 2.8 28.2 3.2 34.3.8 58.8-4.5 80.6-17.5l7.7-4.7v-36.5l-7.7 5.3c-25.5 17.5-56.3 24.9-83.6 20.1-37.4-6.5-58.6-32.2-62.3-75.3l-.7-8.2h171.6l-.6-20.3c-.6-21.4-2.1-33-6.1-46.7-14.2-49-54.3-74.2-108.1-67.9zm29.8 33.4c25.5 5.4 42.1 28.3 44.4 61.2l.6 8.3h-130.6l.7-5.3c1-7.4 6.7-23.6 10.7-30.2 10.7-17.8 25.9-29.9 42.7-34 7.5-1.8 23-1.8 31.5 0z"/>
        <path d="M961.006 256.117c-60.1 5.7-101.3 46.5-109.6 108.4-8 60.6 15.6 111.6 62 133.6 15.7 7.4 25.8 9.6 47.8 10.1 15.1.4 20.7.2 28.5-1.2 12-2.1 25.7-6.4 34.3-10.9l6.5-3.3.3-18.7.2-18.6-4.9 3.5c-7 5-22.6 12.2-31.6 14.5-21.8 5.6-47.9 2.5-65.5-7.7-8.6-5.1-20.7-17.1-25.8-25.9-5.5-9.2-9.8-21.3-11.8-32.7-2.4-14-1.5-40.9 1.9-53.7 8.9-33.9 32.2-57.2 63.6-63.5 11.2-2.3 30.2-1.6 41.6 1.5 8.6 2.3 19.9 7.2 27.7 12 2.6 1.6 5.1 3 5.3 3 .3 0 .4-8.9.3-19.8l-.3-19.7-8.6-3.2c-13-4.9-27.2-7.4-43.4-7.8-7.7-.1-16-.1-18.5.1z"/>
        <path d="M536.506 260.217c-16.6 5.8-29.9 18.2-39 36.5-3 6-5.5 11.6-5.5 12.4 0 .8-.4 1.4-1 1.4s-1-8.8-1-24.5v-24.5h-38v242h37.8l.5-71.3c.4-59.9.7-72.5 2.1-79.1 3.7-18.8 10.4-33 20.7-44 8-8.5 15.6-13 26.1-15.2 11.5-2.5 27.2-.3 35.6 4.8l3.2 2v-40.2l-2.7-1.2c-1.6-.6-9.1-1.3-16.8-1.5-13.2-.3-14.4-.2-22 2.4z"/>
        <path d="M334.206 382.217l.3 120.8 19.3.3 19.2.2v-242h-39l.2 120.7z"/>
        <path d="M1553.806 293.917l-31.8 11.1v6.7c0 3.8.2 6.8.4 6.8s11.8-4.1 25.7-9c13.9-5 25.4-9 25.6-9 .1 0 .3 42.7.3 95v95l-24.2.2-24.3.3-.3 6.2-.3 6.3h111.1v-13h-48v-104c0-82.6-.3-104-1.2-103.9-.7.1-15.6 5.1-33 11.3z"/>
        <path d="M1710.806 293.917l-31.8 11.1v6.7c0 3.8.2 6.8.4 6.8s11.8-4.1 25.6-9c13.8-5 25.4-9 25.6-9 .2 0 .4 42.7.4 95v95l-24.2.2-24.3.3-.3 6.2-.3 6.3h111.1v-13h-48v-104c0-82.6-.3-104-1.2-103.9-.7.1-15.6 5.1-33 11.3z"/>
    </g>
</svg>
