<?xml version="1.0" encoding="UTF-8"?>
<svg data-bbox="-0.009 -0.019 414.5 414.451" viewBox="0 0 414.506 414.444" height="552.593" width="552.674" xmlns="http://www.w3.org/2000/svg" data-type="shape">
    <g>
        <path d="M200.091.745c-1.6.4-4.3 1.5-6 2.3-3 1.6-42.5 40.3-42.5 41.6 0 .4 10.5 11.1 23.3 23.9l23.2 23.2 4.4-.9c5.8-1 15 .3 20.6 3 6.2 3 12.7 10.6 15.5 18 1.9 5.2 2.2 7.3 1.7 13.9l-.6 7.7 7.2 7.2 7.2 7.2 28-28 28-28-44.5-44.4c-42.6-42.5-44.7-44.5-49.9-46-5.7-1.7-10.6-1.9-15.6-.7z"/>
        <path d="M117.191 78.445c-7.5 7.5-13.5 14.1-13.4 14.6.7 1.9 86.4 87 89.1 88.4l2.7 1.5v-29.9l-4.4-2.6c-11.7-6.8-18-22-14.7-35.2l1.2-4.8-22.8-22.8c-12.5-12.5-23.1-22.8-23.4-22.8-.4 0-6.8 6.1-14.3 13.6z"/>
        <path d="M293.091 130.845l-28 28 9.4 9.4 9.3 9.3 9.6-.1c8.6 0 10.3.2 15.3 2.7 25.5 12.4 24.9 46.7-.9 59-5.8 2.7-7 2.9-14.5 2.5-9.1-.5-13.5-2.3-20.2-8.1-6.4-5.5-9.8-12.7-10.3-21.8-.3-4.5 0-9.1.7-11 1.1-3.3 1.1-3.3-8.4-12.9l-9.6-9.5-6.6 6.9c-8 8.4-10.2 13.1-10.3 21.2 0 11.7-.2 11.5 48.3 60.1 24.3 24.4 44.6 44.3 45.2 44.3.5 0 20.9-19.9 45.1-44.3 42.2-42.2 44.3-44.5 45.8-49.6 2-6.9 2-11.3 0-18.2-1.5-5.2-3.5-7.3-46.7-50.7l-45.2-45.2-28 28z"/>
        <path d="M47.591 147.945c-26 26-43.9 44.7-45.2 47.2-3.2 6-3.2 17.5 0 23.5 1.5 2.7 18.3 20.4 45.3 47.4l43.1 43.1 41.4-41.4c22.9-22.8 43.1-43.5 45-46.2 5-6.6 6.4-14.9 4-23.2-1.8-6-2.1-6.3-45.4-49.8-24-24-44-43.7-44.4-43.7-.4 0-20.1 19.4-43.8 43.1z"/>
        <path d="M222.591 168.045v11.2l6-5.9 6-5.9-5.2-5.3c-2.9-2.9-5.6-5.3-6-5.3-.4 0-.8 5-.8 11.2z"/>
        <path d="M190.091 231.045c-3.7 2.6-88.5 87-88.5 88.1 0 1.8 90.3 90.8 94.3 92.9 6.1 3.2 17.4 3.2 23.7-.1 2.9-1.6 19.5-17.4 48-45.8l43.4-43.3-43.4-43.5c-23.9-23.9-43.8-43.5-44.2-43.5-.5 0-.8 6.9-.8 15.4v15.5l4.4 3.1c5.1 3.7 7.9 7.2 11.2 14.3 6.8 14.8-.6 33.7-16.4 41.8-3.9 2-6.2 2.4-13.7 2.4-10.6 0-15.7-2.1-22.8-9.2-7.1-7.1-9.2-12.2-9.2-22.8 0-7.5.4-9.8 2.3-13.6 3-5.8 7.7-10.9 13.1-14.3l4.1-2.6v-18.5c0-20.1 0-20.2-5.5-16.3z"/>
    </g>
</svg>
